# Blender v2.91.0 OBJ File: 'Rock2.blend'
# www.blender.org
mtllib Rock2.mtl
o Cube
v 4.295835 2.141422 -1.000000
v 5.644297 -1.000000 -1.000000
v 4.678211 2.237463 1.000000
v 5.644297 -1.000000 1.000000
v -0.692255 1.000000 -0.676911
v -1.000000 -1.000000 -1.419274
v -0.649127 1.000000 1.000000
v -1.430224 -1.000000 1.365595
v -1.995845 -1.000000 0.000000
v 4.678211 2.137165 0.000000
v -1.000000 1.000000 0.000000
v 6.162793 -1.000000 0.000000
v 5.229407 -0.047179 -1.000000
v -1.368657 -0.186640 1.000000
v 5.229407 -0.047179 1.000000
v -1.000000 -0.047179 -1.000000
v 5.579991 -0.047179 0.000000
v -1.354043 -0.047179 0.000000
v 1.839106 -1.000000 -1.621625
v 1.839106 1.000000 1.000000
v 1.839106 -1.000000 1.743354
v 1.839106 1.000000 -0.985451
v 1.839106 -1.000000 0.000000
v 1.839106 1.878821 0.000000
v 1.839106 -0.047179 -1.184284
v 1.839106 -0.047179 1.743354
v 3.289876 -1.000000 2.318264
v 3.258658 1.724633 -1.000000
v 3.258658 2.827215 0.000000
v 3.258658 -0.047179 -1.618260
v 3.258658 -1.000000 -2.002570
v 3.258658 2.440766 1.326317
v 3.258658 -1.000000 0.000000
v 3.258658 -0.047179 2.005954
v 0.419553 -1.000000 -1.631024
v 0.419553 1.000000 1.000000
v 0.419553 -1.000000 0.000000
v 0.419553 -0.047179 1.485922
v 0.419553 -1.000000 1.512440
v 0.419553 1.000000 -1.000000
v 0.841514 1.562467 0.000000
v 0.419553 -0.047179 -1.198701
vt 0.812500 0.625000
vt 0.875000 0.625000
vt 0.875000 0.750000
vt 0.494103 0.937500
vt 0.625000 0.937500
vt 0.625000 1.000000
vt 0.494103 0.125000
vt 0.625000 0.125000
vt 0.625000 0.250000
vt 0.312500 0.625000
vt 0.375000 0.625000
vt 0.375000 0.750000
vt 0.312500 0.750000
vt 0.494103 0.625000
vt 0.625000 0.625000
vt 0.625000 0.750000
vt 0.494103 0.437500
vt 0.625000 0.437500
vt 0.625000 0.500000
vt 0.312500 0.500000
vt 0.375000 0.500000
vt 0.625000 0.000000
vt 0.812500 0.500000
vt 0.875000 0.500000
vt 0.494103 0.000000
vt 0.375000 0.125000
vt 0.494103 0.500000
vt 0.494103 0.750000
vt 0.494103 0.250000
vt 0.375000 0.250000
vt 0.375000 0.937500
vt 0.494103 1.000000
vt 0.375000 0.812500
vt 0.494103 0.812500
vt 0.494103 0.875000
vt 0.375000 0.312500
vt 0.494103 0.312500
vt 0.494103 0.375000
vt 0.687500 0.500000
vt 0.750000 0.500000
vt 0.750000 0.625000
vt 0.187500 0.500000
vt 0.250000 0.500000
vt 0.250000 0.625000
vt 0.187500 0.625000
vt 0.625000 0.312500
vt 0.625000 0.375000
vt 0.250000 0.750000
vt 0.187500 0.750000
vt 0.625000 0.812500
vt 0.625000 0.875000
vt 0.687500 0.625000
vt 0.750000 0.750000
vt 0.687500 0.750000
vt 0.375000 0.375000
vt 0.375000 0.437500
vt 0.125000 0.625000
vt 0.125000 0.750000
vt 0.125000 0.500000
vt 0.375000 0.875000
vt 0.812500 0.750000
vt 0.375000 1.000000
vt 0.375000 0.000000
vn -0.2906 0.9514 0.1020
vn 0.0000 0.4209 0.9071
vn -0.8701 0.2942 -0.3956
vn 0.0000 -1.0000 0.0000
vn 0.9237 0.3813 -0.0382
vn -0.1312 0.3266 -0.9360
vn 0.8719 0.3600 -0.3319
vn -0.8990 0.3039 0.3154
vn 0.0000 1.0000 0.0000
vn -0.8276 0.5575 0.0656
vn 0.8729 0.3801 -0.3060
vn 0.2968 0.1292 -0.9461
vn 0.8729 0.3801 0.3060
vn -0.9327 0.1453 -0.3302
vn -0.2641 0.0268 0.9641
vn -0.1734 0.3016 0.9375
vn 0.0092 0.4132 -0.9106
vn -0.3616 0.6958 -0.6205
vn 0.0101 0.1864 -0.9824
vn -0.4394 0.2367 0.8665
vn -0.4485 0.6714 0.5900
vn 0.1978 0.9411 0.2742
vn 0.2313 0.0558 0.9713
vn -0.2606 0.6486 -0.7151
vn 0.4460 0.1942 0.8737
vn -0.2549 0.3829 -0.8880
vn -0.1047 0.1855 -0.9770
vn -0.2745 0.1793 -0.9447
vn -0.1309 0.4045 -0.9051
vn -0.1695 0.0137 0.9854
vn 0.0050 0.8707 -0.4918
vn 0.0000 0.8716 0.4902
vn -0.2317 0.7307 0.6422
vn -0.1463 0.5726 0.8067
vn -0.2303 0.7263 -0.6477
vn -0.2773 0.3165 -0.9071
vn 0.4677 0.2891 0.8353
vn 0.4315 0.8876 -0.1612
vn 0.4418 0.2364 0.8654
vn 0.4354 0.8957 -0.0898
vn -0.7204 0.6659 0.1940
vn -0.1492 0.5724 0.8063
vn 0.0100 0.1865 -0.9824
vn -0.4095 0.6129 -0.6758
vn 0.0060 0.4171 -0.9088
vn -0.3684 0.0000 0.9297
vn 0.7802 0.4772 0.4045
vn 0.3631 0.3485 -0.8641
vn 0.7802 0.4772 -0.4045
vn 0.2969 0.1267 -0.9465
vn 0.9201 0.2220 0.3226
vn -0.1310 0.3272 -0.9358
vn -0.0721 0.4134 0.9077
vn -0.7168 0.4829 -0.5030
vn -0.8980 0.2352 0.3719
vn -0.2698 0.8834 -0.3830
vn -0.8536 0.5176 0.0597
vn 0.8754 0.3734 -0.3069
vn -0.8812 0.3552 -0.3120
vn -0.2706 0.1641 0.9486
usemtl Material
s off
f 41/1/1 11/2/1 7/3/1
f 38/4/2 36/5/2 7/6/2
f 18/7/3 11/8/3 5/9/3
f 33/10/4 12/11/4 4/12/4 27/13/4
f 17/14/5 10/15/5 3/16/5
f 30/17/6 28/18/6 1/19/6
f 1/19/7 10/15/7 17/14/7
f 31/20/4 2/21/4 12/11/4 33/10/4
f 7/22/8 11/8/8 18/7/8
f 40/23/9 5/24/9 11/2/9
f 14/25/10 18/7/10 9/26/10
f 2/21/11 13/27/11 17/14/11
f 30/17/12 13/27/12 2/21/12
f 17/14/13 15/28/13 4/12/13
f 18/7/14 16/29/14 6/30/14
f 39/31/15 38/4/15 14/32/15
f 27/33/16 34/34/16 26/35/16
f 35/36/17 42/37/17 25/38/17
f 28/39/18 22/40/18 24/41/18
f 35/42/4 19/43/4 23/44/4 37/45/4
f 42/37/19 40/46/19 22/47/19
f 37/45/4 23/44/4 21/48/4 39/49/4
f 34/34/20 32/50/20 20/51/20
f 29/52/21 24/41/21 20/53/21
f 29/52/22 32/54/22 3/16/22
f 15/28/23 3/16/23 32/50/23
f 1/19/24 28/39/24 29/52/24
f 4/12/25 15/28/25 34/34/25
f 19/55/26 25/38/26 30/17/26 31/56/26
f 19/43/4 31/20/4 33/10/4 23/44/4
f 25/38/27 22/47/27 28/18/27
f 23/44/4 33/10/4 27/13/4 21/48/4
f 9/57/4 37/45/4 39/49/4 8/58/4
f 5/9/28 40/46/28 42/37/28
f 6/59/4 35/42/4 37/45/4 9/57/4
f 6/30/29 16/29/29 42/37/29 35/36/29
f 21/60/30 26/35/30 38/4/30 39/31/30
f 22/40/31 40/23/31 41/1/31
f 20/51/2 36/5/2 38/4/2
f 41/1/32 36/61/32 20/53/32
f 24/41/33 41/1/33 20/53/33
f 26/35/34 20/51/34 38/4/34
f 24/41/35 22/40/35 41/1/35
f 30/17/36 25/38/36 28/18/36
f 27/33/37 4/12/37 34/34/37
f 10/15/38 1/19/38 29/52/38
f 34/34/39 15/28/39 32/50/39
f 10/15/40 29/52/40 3/16/40
f 32/54/41 29/52/41 20/53/41
f 26/35/42 34/34/42 20/51/42
f 25/38/43 42/37/43 22/47/43
f 29/52/44 28/39/44 24/41/44
f 19/55/45 35/36/45 25/38/45
f 21/60/46 27/33/46 26/35/46
f 12/11/47 17/14/47 4/12/47
f 31/56/48 30/17/48 2/21/48
f 12/11/49 2/21/49 17/14/49
f 13/27/50 30/17/50 1/19/50
f 15/28/51 17/14/51 3/16/51
f 16/29/52 5/9/52 42/37/52
f 8/62/53 39/31/53 14/32/53
f 9/26/54 18/7/54 6/30/54
f 8/63/55 14/25/55 9/26/55
f 41/1/56 40/23/56 11/2/56
f 14/25/57 7/22/57 18/7/57
f 13/27/58 1/19/58 17/14/58
f 16/29/59 18/7/59 5/9/59
f 14/32/60 38/4/60 7/6/60
f 36/61/32 41/1/32 7/3/32
